# xmcd CD database file
#
# Track frame offsets:
#	188
#	34818
#	81043
#	115953
#	150088
#	204563
#	229485
#	254713
#	292438
#
# Disc length: 4258 seconds
#
# Revision: 0
# Processed by: cddbd v1.4PL0 Copyright (c) Steve Scherf et al.
# Submitted via: CDex 1.50
#
DISCID=8110a009
DTITLE=Yomano - Klangessenzen
DYEAR=1999
DGENRE=New Age
TTITLE0=You are beautiful
TTITLE1=Spring of Life
TTITLE2=Flying on a Cloud
TTITLE3=Journey to your Heart
TTITLE4=Tears of Joy
TTITLE5=See the Light
TTITLE6=The Lagoon of Love
TTITLE7=Remember
TTITLE8=irgendwas
EXTD=YEAR: 1999
EXTT0=
EXTT1=
EXTT2=
EXTT3=
EXTT4=
EXTT5=
EXTT6=
EXTT7=
EXTT8=
PLAYORDER=
